<?xml version="1.0" encoding="UTF-8"?>
<svg width="69" height="69" version="1.1" viewBox="0 0 69 69" xml:space="preserve" xmlns="http://www.w3.org/2000/svg" xmlns:cc="http://creativecommons.org/ns#" xmlns:dc="http://purl.org/dc/elements/1.1/" xmlns:rdf="http://www.w3.org/1999/02/22-rdf-syntax-ns#"><metadata><rdf:RDF><cc:Work rdf:about=""><dc:format>image/svg+xml</dc:format><dc:type rdf:resource="http://purl.org/dc/dcmitype/StillImage"/><dc:title/></cc:Work></rdf:RDF></metadata><path d="m44 40.2c0-8.3-12-7.7-12-11.9 0-1.3 1-2.3 2.9-2.3 2.8 0 4.2 1.6 4.9 2.4l3.5-4.2c-0.7-0.9-2.7-2.4-5.7-2.9v-2.8h-5.1v3c-3.8 1-6.2 3.9-6.2 7.3 0 8.2 12 7.7 12 11.8 0 1.4-1.1 2.5-3.4 2.5-3.2 0-5.4-2-6.6-3.1l-3.2 4.7c0.8 0.9 3.3 2.7 7.4 3.1v2.7h5v-3c4.3-1 6.5-4.1 6.5-7.3z"/><g transform="translate(-15.5,-15.5)"><path d="m22.9 70.4h-0.2c-0.4-0.1-0.8-0.3-1-0.6-4.1-5.8-6.2-12.6-6.2-19.7 0-8 2.8-15.8 7.9-22 0.3-0.3 0.7-0.5 1.1-0.5s0.8 0.1 1.1 0.4l6.5 6.2c0.6 0.5 0.6 1.4 0.1 2-3.1 4-4.8 8.8-4.8 13.9 0 4.3 1.2 8.5 3.6 12.2 0.4 0.6 0.3 1.5-0.3 2l-6.8 5.7c-0.3 0.2-0.6 0.4-1 0.4zm1.8-39.2c-4 5.4-6.2 12-6.2 18.8 0 5.9 1.6 11.6 4.8 16.6l4.6-4c-2.2-3.9-3.4-8.2-3.4-12.7 0-5.3 1.6-10.3 4.6-14.6z"/><path d="m46.1 84.3h-0.2c-7.9-0.9-15.3-4.6-20.8-10.3-0.3-0.3-0.4-0.7-0.4-1.1s0.2-0.8 0.5-1.1l6.9-5.9c0.6-0.5 1.5-0.5 2 0.1 3.4 3.4 7.7 5.6 12.4 6.3 0.7 0.1 1.3 0.8 1.3 1.5l-0.2 9.1c0 0.4-0.2 0.8-0.5 1.1-0.2 0.2-0.6 0.3-1 0.3zm-17.6-11.3c4.5 4.2 10.2 7 16.2 8.1l0.1-6.1c-4.4-0.9-8.4-2.9-11.8-5.9z"/><path d="m80.5 65.2c-0.1-0.4-0.4-0.7-0.8-0.9l-8.2-3.8c-0.7-0.3-1.5-0.1-1.9 0.6-3.8 6.7-10.6 10.9-18.1 11.4-0.8 0.1-1.4 0.7-1.4 1.5l-0.2 9c0 0.4 0.2 0.8 0.4 1.1 0.3 0.3 0.7 0.4 1.1 0.4h0.1c12.1-0.5 23.2-7.4 28.9-18.1 0.2-0.4 0.2-0.8 0.1-1.2z"/><path d="m81.2 62.4c-0.2 0-0.4 0-0.6-0.1l-8.2-3.8c-0.7-0.3-1-1.1-0.8-1.8 0.7-2.2 1-4.4 1-6.7 0-12.4-10.1-22.5-22.5-22.5-5.2 0-10.3 1.8-14.3 5.1-0.6 0.5-1.4 0.5-2-0.1l-6.5-6.2c-0.3-0.3-0.5-0.7-0.5-1.1s0.2-0.8 0.5-1.1c6.3-5.6 14.4-8.6 22.8-8.6 18.9 0 34.4 15.5 34.4 34.5 0 3.9-0.7 7.7-1.9 11.4-0.1 0.4-0.4 0.7-0.8 0.9-0.2 0.1-0.4 0.1-0.6 0.1zm-6.5-6.1 5.5 2.5c0.8-2.9 1.3-5.8 1.3-8.8 0-17.4-14.1-31.5-31.5-31.5-7.1 0-14 2.4-19.5 6.8l4.4 4.2c4.4-3.2 9.7-5 15.2-5 14.1 0 25.5 11.5 25.5 25.5-0.1 2.1-0.3 4.2-0.9 6.3z"/></g></svg>
