<svg xmlns="http://www.w3.org/2000/svg" xmlns:xlink="http://www.w3.org/1999/xlink" version="1.1" x="0px" y="0px" viewBox="0 0 100 125" style="enable-background:new 0 0 100 100;" xml:space="preserve"><path d="M59.5,55.7c0-8.3-12-7.7-12-11.9c0-1.3,1-2.3,2.9-2.3c2.8,0,4.2,1.6,4.9,2.4l3.5-4.2c-0.7-0.9-2.7-2.4-5.7-2.9V34h-5.1v3  c-3.8,1-6.2,3.9-6.2,7.3c0,8.2,12,7.7,12,11.8c0,1.4-1.1,2.5-3.4,2.5c-3.2,0-5.4-2-6.6-3.1l-3.2,4.7c0.8,0.9,3.3,2.7,7.4,3.1V66H53  v-3C57.3,62,59.5,58.9,59.5,55.7z"/><g><path d="M22.9,70.4c-0.1,0-0.1,0-0.2,0c-0.4-0.1-0.8-0.3-1-0.6c-4.1-5.8-6.2-12.6-6.2-19.7c0-8,2.8-15.8,7.9-22   c0.3-0.3,0.7-0.5,1.1-0.5c0.4,0,0.8,0.1,1.1,0.4l6.5,6.2c0.6,0.5,0.6,1.4,0.1,2c-3.1,4-4.8,8.8-4.8,13.9c0,4.3,1.2,8.5,3.6,12.2   c0.4,0.6,0.3,1.5-0.3,2L23.9,70C23.6,70.2,23.3,70.4,22.9,70.4z M24.7,31.2c-4,5.4-6.2,12-6.2,18.8c0,5.9,1.6,11.6,4.8,16.6l4.6-4   c-2.2-3.9-3.4-8.2-3.4-12.7c0-5.3,1.6-10.3,4.6-14.6L24.7,31.2z"/><path d="M46.1,84.3c-0.1,0-0.1,0-0.2,0c-7.9-0.9-15.3-4.6-20.8-10.3c-0.3-0.3-0.4-0.7-0.4-1.1c0-0.4,0.2-0.8,0.5-1.1l6.9-5.9   c0.6-0.5,1.5-0.5,2,0.1c3.4,3.4,7.7,5.6,12.4,6.3c0.7,0.1,1.3,0.8,1.3,1.5l-0.2,9.1c0,0.4-0.2,0.8-0.5,1.1   C46.9,84.2,46.5,84.3,46.1,84.3z M28.5,73c4.5,4.2,10.2,7,16.2,8.1l0.1-6.1c-4.4-0.9-8.4-2.9-11.8-5.9L28.5,73z"/><path d="M80.5,65.2c-0.1-0.4-0.4-0.7-0.8-0.9l-8.2-3.8c-0.7-0.3-1.5-0.1-1.9,0.6C65.8,67.8,59,72,51.5,72.5   c-0.8,0.1-1.4,0.7-1.4,1.5l-0.2,9c0,0.4,0.2,0.8,0.4,1.1c0.3,0.3,0.7,0.4,1.1,0.4c0,0,0,0,0.1,0c12.1-0.5,23.2-7.4,28.9-18.1   C80.6,66,80.6,65.6,80.5,65.2z"/><path d="M81.2,62.4c-0.2,0-0.4,0-0.6-0.1l-8.2-3.8c-0.7-0.3-1-1.1-0.8-1.8c0.7-2.2,1-4.4,1-6.7c0-12.4-10.1-22.5-22.5-22.5   c-5.2,0-10.3,1.8-14.3,5.1c-0.6,0.5-1.4,0.5-2-0.1l-6.5-6.2c-0.3-0.3-0.5-0.7-0.5-1.1c0-0.4,0.2-0.8,0.5-1.1   c6.3-5.6,14.4-8.6,22.8-8.6C69,15.5,84.5,31,84.5,50c0,3.9-0.7,7.7-1.9,11.4c-0.1,0.4-0.4,0.7-0.8,0.9   C81.6,62.4,81.4,62.4,81.2,62.4z M74.7,56.3l5.5,2.5c0.8-2.9,1.3-5.8,1.3-8.8c0-17.4-14.1-31.5-31.5-31.5c-7.1,0-14,2.4-19.5,6.8   l4.4,4.2c4.4-3.2,9.7-5,15.2-5c14.1,0,25.5,11.5,25.5,25.5C75.5,52.1,75.3,54.2,74.7,56.3z"/></g><text x="0" y="115" fill="#000000" font-size="5px" font-weight="bold" font-family="'Helvetica Neue', Helvetica, Arial-Unicode, Arial, Sans-serif">Created by Jianshi Wu</text><text x="0" y="120" fill="#000000" font-size="5px" font-weight="bold" font-family="'Helvetica Neue', Helvetica, Arial-Unicode, Arial, Sans-serif">from the Noun Project</text></svg>
